<svg xmlns="http://www.w3.org/2000/svg" viewBox="0 0 256 256">
  <path fill="black" d="M244.658 0H121.707a55.502 55.502 0 0 0 55.502 55.502h22.649V77.37c.02 30.625 24.841 55.447 55.466 55.502V10.666C255.324 4.777 250.55 0 244.658 0Z"/>
  <path fill="black" d="M183.822 61.262H60.872c.019 30.625 24.84 55.447 55.466 55.502h22.649v21.868c.02 30.597 24.798 55.408 55.395 55.502V71.93c0-5.891-4.776-10.667-10.56-10.667Z"/>
  <path fill="black" d="M122.943 122.524H0c0 30.653 24.853 55.502 55.502 55.502h22.72v21.868c.02 30.597 24.798 55.408 55.395 55.502V133.19c0-5.891-4.776-10.667-10.674-10.667Z"/>
</svg>
