<?xml version="1.0" encoding="utf-8"?>
<svg version="1.1" xmlns="http://www.w3.org/2000/svg" viewBox="0 0 256 134">
  <ellipse cx="128" cy="67" rx="128" ry="67" fill="white" fill-opacity="0.08"/>
  <g>
    <!-- P -->
    <path fill="white" fill-opacity="0.54" d="M39.1,95.6l5.2-26.8h13.1c9.3,0,15.1,4.5,15.1,12.4c0,10.5-8.2,18.8-19.8,18.8h-7.8l-2.3,11.8H33.2L39.1,95.6z M52.7,91.8h4.8c6.2,0,10.2-4.3,10.2-10.2c0-4.2-2.8-6.4-7.4-6.4h-4.8L52.7,91.8z"/>
    <!-- H -->
    <path fill="white" fill-opacity="0.54" d="M85.3,68.8h9.4l-2.3,11.8h13.2l2.3-11.8h9.4l-7.6,39h-9.4l2.8-14.5H89.9l-2.8,14.5h-9.4L85.3,68.8z"/>
    <!-- P -->
    <path fill="white" fill-opacity="0.54" d="M131.1,95.6l5.2-26.8h13.1c9.3,0,15.1,4.5,15.1,12.4c0,10.5-8.2,18.8-19.8,18.8h-7.8l-2.3,11.8h-9.4L131.1,95.6z M144.7,91.8h4.8c6.2,0,10.2-4.3,10.2-10.2c0-4.2-2.8-6.4-7.4-6.4h-4.8L144.7,91.8z"/>
  </g>
</svg>
