<svg viewBox="0 0 24 24" xmlns="http://www.w3.org/2000/svg"><path fill="black" d="M12 0C5.383 0 0 5.383 0 12s5.383 12 12 12 12-5.383 12-12S18.617 0 12 0zm0 1.144c5.995 0 10.856 4.861 10.856 10.856S17.995 22.856 12 22.856 1.144 17.995 1.144 12 6.005 1.144 12 1.144zM8.37 5.868a6.707 6.707 0 00-.423.005c-.983.056-1.573.517-1.735 1.472-.115.665-.17 1.342-.2 2.017-.03.58-.068 1.16-.18 1.73-.112.563-.477.91-1.03 1.01-.03.007-.06.02-.089.03v1.752c.058.009.12.013.178.029.454.122.697.467.78.918.062.342.094.69.117 1.037.03.45.041.904.088 1.354.055.53.16 1.048.513 1.482.232.285.543.413.884.46.217.03.437.03.657.035V16.09c-.328.047-.476-.11-.53-.407a8.442 8.442 0 01-.088-.695c-.037-.476-.063-.954-.104-1.43-.066-.765-.333-1.418-1.089-1.766a.324.324 0 010-.062c.758-.352 1.024-.997 1.09-1.769.04-.472.066-.947.102-1.42.024-.332.05-.665.094-.995.046-.317.2-.466.527-.434v-1.24l-.012-.002a3.327 3.327 0 00-.55.003zm7.593.005a3.335 3.335 0 00-.55-.003l-.013.002v1.24c.326-.032.48.117.527.434.043.33.07.663.094.995.036.473.062.948.102 1.42.066.772.332 1.417 1.089 1.77a.324.324 0 010 .06c-.756.349-1.023.994-1.089 1.767-.04.476-.067.954-.104 1.43-.024.233-.05.465-.088.695-.054.297-.201.454-.53.407v1.278c.22-.005.44-.005.657-.036.34-.047.652-.174.884-.46.353-.433.458-.95.513-1.481.047-.45.058-.905.088-1.354.023-.347.055-.695.117-1.037.083-.452.326-.796.78-.918.058-.016.12-.02.178-.03v-1.751c-.03-.01-.06-.023-.09-.03-.552-.1-.917-.447-1.029-1.01-.112-.57-.15-1.15-.18-1.73-.03-.675-.085-1.352-.2-2.017-.161-.955-.752-1.416-1.735-1.472a6.71 6.71 0 00-.421-.005zm-2.855 4.433c-.396 0-.718.319-.718.712a.716.716 0 00.718.713c.397 0 .718-.32.718-.713a.716.716 0 00-.718-.712zm-2.23.006a.716.716 0 00-.718.712c0 .393.322.713.719.713.396 0 .717-.32.717-.713a.716.716 0 00-.717-.712zm4.46 0a.716.716 0 00-.72.712c0 .393.323.713.72.713.396 0 .717-.32.717-.713a.716.716 0 00-.718-.712z"/></svg>
