<svg xmlns="http://www.w3.org/2000/svg" width="64" height="64" viewBox="0 0 64 64" fill="none">
  <!-- Shield -->
  <path d="M32 2L6 14v22c0 16 12 24 26 26 14-2 26-10 26-26V14L32 2z" fill="#DDDCE5"/>
  <!-- Dog silhouette - simplified doberman head -->
  <path d="M22 10L18 6l6 12zM42 10l4-4-6 12z" fill="#4C4178"/>
  <path d="M22 18c-2 4-4 8-4 14 0 8 6 16 14 20 8-4 14-12 14-20 0-6-2-10-4-14l-10-6-10 6z" fill="#4C4178"/>
  <!-- Snout -->
  <path d="M26 32l6-4 6 4v8l-6 6-6-6v-8z" fill="#C9A87C"/>
  <!-- Eyes - simple slits -->
  <path d="M22 26l4 1v2l-4-1zM42 26l-4 1v2l4-1z" fill="#DDDCE5"/>
</svg>
