<svg xmlns="http://www.w3.org/2000/svg" width="64" height="64" viewBox="0 0 130 202" fill="none">
  <defs>
    <mask id="cutouts">
      <rect width="130" height="202" fill="white"/>
      <path d="M110.80 48.52C111.98 52.20 112.72 55.48 112.72 57.91V58.90L105.77 77.61C107.39 92.38 108.92 110.64 107.22 115.03C106.37 117.19 103.83 121.10 99.70 126.62L104.19 168.07L124.85 153.27V52.34C124.85 52.34 119.94 50.49 110.80 48.52Z" fill="black"/>
      <path d="M51.60 57.97C55.06 56.92 59.69 55.87 64.42 55.87C69.15 55.87 73.81 56.92 77.29 57.98L79.44 54.45L80.87 44.45C80.87 44.45 70.86 43.92 64.53 43.92C58.64 43.92 53.14 44.12 48.03 44.46L49.46 54.45L51.60 57.97Z" fill="black"/>
      <path d="M21.68 115.02C19.97 110.65 21.51 92.38 23.13 77.61L16.18 58.91V57.91C16.18 55.48 16.91 52.21 18.09 48.53C8.95 50.50 4.05 52.34 4.05 52.34V153.27L24.79 168.13L29.27 126.73C25.09 121.15 22.53 117.21 21.68 115.02Z" fill="black"/>
      <path d="M104.03 113.79C105.15 110.92 104.50 97.35 102.31 77.48L102.28 77.18L109.30 58.29V57.91C109.30 49.67 98.63 27.62 92.32 15.89L89.24 10.16L82.72 55.63L78.81 62.06L77.83 61.73C75.11 60.82 69.74 59.29 64.42 59.29C59.37 59.29 54.37 60.61 51.06 61.73L50.09 62.06L46.17 55.63L39.65 10.16L36.57 15.89C30.27 27.62 19.59 49.67 19.59 57.91V58.29L26.62 77.18L26.58 77.48C24.39 97.35 23.75 110.92 24.86 113.79C25.87 116.36 29.85 121.87 33.19 126.25L28.38 170.71L33.17 174.14L37.64 132.75C37.74 135.96 38.14 142.67 39.78 148.81L36.76 176.71L64.44 196.55L97.68 172.74L100.59 170.65L95.78 126.16C99.10 121.79 103.03 116.35 104.03 113.79ZM92.34 28.01C97.72 38.94 103.37 51.93 103.76 57.35L100.74 65.47C93.49 55.29 91.21 38.74 91.02 37.23L92.34 28.01ZM83.61 88.59C90.13 88.59 85.25 94.11 84.68 94.74H72.35C73.47 93.34 77.71 88.59 83.61 88.59ZM80.09 99.98C80.00 100.67 79.41 101.16 78.74 101.17C78.94 102.07 79.67 102.80 80.64 102.93C81.89 103.11 83.04 102.24 83.21 100.99C83.34 100.08 82.90 99.22 82.17 98.76H86.08V98.96C86.08 101.79 83.78 104.09 80.93 104.09C78.09 104.09 75.79 101.79 75.79 98.96V98.76H79.76C79.73 98.78 79.72 98.80 79.69 98.81C79.99 99.11 80.16 99.53 80.09 99.98ZM67.48 159.97C68.24 160.47 69.03 160.87 69.86 161.18C68.56 162.67 66.76 163.41 64.45 163.41C62.13 163.41 60.34 162.66 59.03 161.18C59.86 160.86 60.66 160.46 61.41 159.96C62.47 160.84 63.65 160.85 64.45 160.85C65.24 160.85 66.43 160.85 67.48 159.97ZM47.12 99.98C47.02 100.67 46.44 101.16 45.77 101.17C45.97 102.07 46.70 102.80 47.67 102.93C48.91 103.11 50.06 102.24 50.24 100.99C50.36 100.08 49.93 99.22 49.19 98.76H53.11V98.96C53.11 101.79 50.80 104.09 47.96 104.09C45.12 104.09 42.81 101.79 42.81 98.96V98.76H46.78C46.76 98.78 46.74 98.80 46.72 98.81C47.02 99.11 47.18 99.53 47.12 99.98ZM44.22 94.74C43.64 94.11 38.77 88.59 45.29 88.59C51.18 88.59 55.42 93.34 56.55 94.74H44.22ZM25.21 57.35C25.60 51.93 31.25 38.95 36.64 28.01L38.07 38.01C37.53 41.75 35.02 56.42 28.31 65.67L25.21 57.35ZM44.82 150.65C41.93 142.73 41.89 131.65 41.89 131.19V130.43L41.42 129.84C37.14 124.54 29.96 115.09 28.88 112.31L28.84 112.20C27.88 108.86 29.61 88.93 30.92 77.15L30.98 76.64L29.53 72.74L30.08 72.16C33.77 68.30 36.91 62.74 39.41 55.65L41.15 50.72L42.07 57.10L48.33 67.39L50.04 66.66C50.11 66.63 57.30 63.55 64.42 63.55H64.45V66.96H64.42C58.11 66.96 51.46 69.76 51.39 69.79L46.96 71.70L40.77 61.54C38.67 66.36 36.23 70.37 33.47 73.52L34.47 76.22L34.32 77.53C32.45 94.27 31.62 108.94 32.10 111.18C32.78 112.73 36.17 117.48 39.88 122.34L45.68 120.65L54.77 110.28L56.20 137.14C56.11 137.25 54.02 140.19 54.02 141.87C54.02 143.69 56.70 146.07 59.34 147.98C59.38 147.90 59.40 147.82 59.44 147.75C60.38 146.09 61.58 145.79 62.13 147.06C62.44 147.78 62.35 149.93 62.35 149.93L62.39 149.95V152.49C62.29 152.71 60.04 157.73 54.51 157.73C52.37 157.73 47.15 157.04 44.82 150.65ZM64.52 169.36C60.42 169.36 54.44 167.37 53.84 161.97C54.07 161.98 54.28 162.00 54.51 162.00C54.98 162.00 55.43 161.97 55.89 161.92C57.71 165.45 61.06 166.57 64.45 166.57C67.83 166.57 71.16 165.44 72.99 161.92C73.44 161.97 73.91 161.99 74.38 161.99C74.61 161.99 74.83 161.98 75.05 161.97C74.46 167.37 68.56 169.36 64.52 169.36ZM87.47 129.84L87.00 130.43V131.19C87.00 131.65 86.97 142.74 84.07 150.65C81.74 157.04 76.52 157.73 74.38 157.73C68.87 157.73 66.60 152.61 66.50 152.40V149.95L66.55 149.93C66.55 149.93 66.45 147.78 66.76 147.06C67.31 145.79 68.52 146.09 69.45 147.75C69.49 147.82 69.51 147.90 69.55 147.98C72.20 146.07 74.88 143.69 74.88 141.87C74.88 140.19 72.79 137.26 72.70 137.14L74.13 110.28L83.21 120.65L92.53 123.36C90.74 125.72 88.93 128.03 87.47 129.84Z" fill="black"/>
    </mask>
  </defs>
  <g mask="url(#cutouts)">
    <path d="M94.27 14.05L95.12 15.63C96.98 19.05 113.23 49.38 113.23 60.34V60.99L105.86 80.73C107.06 91.49 109.45 114.88 107.65 119.45C106.54 122.28 102.30 128.09 98.68 132.80H96.78L98.75 150.89L92.81 155.18L90.38 132.82H88.21C88.00 133.55 87.77 134.26 87.51 134.96C86.15 138.65 83.75 141.45 80.67 143.11C80.49 151.97 72.25 156.74 64.48 156.74C56.65 156.74 48.34 151.97 48.16 143.12C45.08 141.46 42.67 138.66 41.31 134.96C41.07 134.29 40.84 133.61 40.64 132.91H38.51L36.07 155.42L30.14 151.27L32.13 132.93H30.26C26.61 128.21 22.30 122.31 21.18 119.45C19.38 114.88 21.67 91.49 22.87 80.73L15.36 60.99V60.34C15.36 49.38 31.75 19.05 33.61 15.63L33.76 15.36C35.55 11.84 36.94 9.26 37.39 8.44L42.04 0C42.04 0 46.29 29.34 46.29 29.37L48.58 45.22L50.72 62.78C53.32 61.96 56.97 61.01 60.89 60.63C61.95 58.01 63.11 56.26 64.39 56.26C66.83 56.26 69.26 58.61 71.45 61.13C73.87 61.56 76.07 62.15 77.83 62.69L80.24 45.22L86.77 0L91.33 8.44C91.72 9.16 92.82 11.21 94.27 14.05Z" fill="white"/>
    <path d="M64.46 200.80L0 155.32V49.27C0 49.27 23.83 40.42 64.54 40.42C105.26 40.42 128.92 49.27 128.92 49.27V155.32L64.46 200.80Z" fill="white"/>
  </g>
</svg>
