<svg xmlns="http://www.w3.org/2000/svg" viewBox="0 0 24 24"><path fill="black" d="M7.257 9.132L11.816 6.5a.369.369 0 0 1 .368 0l4.559 2.632a.369.369 0 0 1 .184.32v5.262a.37.37 0 0 1-.184.319l-4.559 2.632a.369.369 0 0 1-.368 0l-4.559-2.632a.369.369 0 0 1-.184-.32V9.452a.37.37 0 0 1 .184-.32M23.852 11.65L18.572 2.47a.924.924 0 0 0-.8-.461H7.227a.924.924 0 0 0-.8.461l-5.28 9.18a.94.94 0 0 0 0 .925l5.28 9.114a.926.926 0 0 0 .8.448h10.546a.926.926 0 0 0 .8-.448l5.28-9.114a.94.94 0 0 0 0-.925M19.21 16.643a.232.232 0 0 1-.121.211l-6.97 4.023a.234.234 0 0 1-.244 0l-6.977-4.023a.243.243 0 0 1-.118-.211v-8.05a.234.234 0 0 1 .115-.211l6.973-4.022a.232.232 0 0 1 .243 0l6.973 4.022a.234.234 0 0 1 .121.211z"/></svg>
