<svg xmlns="http://www.w3.org/2000/svg" viewBox="0 0 24 24">
<path fill="black" d="M22.394 6c-.167-.29-.398-.543-.652-.69L12.926.22c-.509-.294-1.34-.294-1.848 0L2.26 5.31c-.508.293-.923 1.013-.923 1.6v10.18c0 .294.104.62.271.91.167.29.398.543.652.689l8.816 5.091c.508.293 1.34.293 1.848 0l8.816-5.091c.254-.146.485-.399.652-.689s.271-.616.271-.91V6.91c.002-.294-.102-.62-.269-.91zM12 19.11c-3.92 0-7.109-3.19-7.109-7.11 0-3.92 3.19-7.11 7.109-7.11a7.133 7.133 0 0 1 6.156 3.553l-3.076 1.78a3.567 3.567 0 0 0-3.08-1.78A3.56 3.56 0 0 0 8.444 12 3.56 3.56 0 0 0 12 15.555a3.57 3.57 0 0 0 3.08-1.778l3.078 1.78A7.135 7.135 0 0 1 12 19.11zm7.11-6.715h-.79v.79h-.79v-.79h-.79v-.79h.79v-.79h.79v.79h.79zm2.962 0h-.79v.79h-.79v-.79h-.79v-.79h.79v-.79h.79v.79h.79z"/>
</svg>
