<svg xmlns="http://www.w3.org/2000/svg" width="64" height="64" viewBox="0 0 64 64">
  <g fill="black">
    <circle cx="32" cy="32" r="3.2"/>
    <path d="M32 5.8l1.3 9.5a17.4 17.4 0 0 1 7.4 3.1l8.4-4.7.6.5-4.7 8.4a17.4 17.4 0 0 1 3.1 7.4l9.5 1.3v.8l-9.5 1.3a17.4 17.4 0 0 1-3.1 7.4l4.7 8.4-.5.6-8.4-4.7a17.4 17.4 0 0 1-7.4 3.1L32 58.2h-.8l-1.3-9.5a17.4 17.4 0 0 1-7.4-3.1l-8.4 4.7-.6-.5 4.7-8.4a17.4 17.4 0 0 1-3.1-7.4L5.6 32.8v-.8l9.5-1.3a17.4 17.4 0 0 1 3.1-7.4l-4.7-8.4.5-.6 8.4 4.7a17.4 17.4 0 0 1 7.4-3.1L31.2 5.8zm0 12.4a14 14 0 1 0 0 28 14 14 0 0 0 0-28z"/>
  </g>
</svg>
