<svg xmlns="http://www.w3.org/2000/svg" width="64" height="64" viewBox="0 0 64 64" fill="none">
  <defs>
    <mask id="pkg-mask">
      <rect width="64" height="64" fill="white"/>
      <path d="M49 23L49 39C49 47 38 52 38 52C38 52 27 47 27 39L27 23L38 18L49 23Z" fill="black"/>
    </mask>
  </defs>
  <!-- Package box with shield cutout -->
  <g mask="url(#pkg-mask)">
    <rect x="4" y="10" width="38" height="30" rx="3" fill="black" fill-opacity="0.15" stroke="black" stroke-width="2"/>
    <!-- Package flap -->
    <path d="M4 19L42 19" stroke="black" stroke-width="1.5"/>
    <path d="M23 10L23 19" stroke="black" stroke-width="1.5"/>
    <!-- Content lines -->
    <rect x="10" y="25" width="18" height="2.5" rx="1" fill="black" fill-opacity="0.6"/>
    <rect x="10" y="31" width="13" height="2.5" rx="1" fill="black" fill-opacity="0.6"/>
  </g>
  <!-- Shield badge -->
  <path d="M49 23L49 39C49 47 38 52 38 52C38 52 27 47 27 39L27 23L38 18L49 23Z" fill="black" fill-opacity="0.15" stroke="black" stroke-width="2"/>
  <path d="M34 36L37 39L43 32" stroke="black" stroke-width="2.5" stroke-linecap="round" stroke-linejoin="round"/>
</svg>
