<svg xmlns="http://www.w3.org/2000/svg" viewBox="0 0 24 24"><path fill="black" fill-rule="evenodd" d="M12 1.3a2.75 2.75 0 1 0 0 5.5 2.75 2.75 0 0 0 0-5.5Zm0 1.5a1.25 1.25 0 1 1 0 2.5 1.25 1.25 0 0 1 0-2.5Z"/><rect fill="black" x="11.1" y="4.5" width="1.8" height="16" rx="0.5"/><rect fill="black" x="7.3" y="7.7" width="9.4" height="1.7" rx="0.85"/><path fill="black" d="M2.6 11.4a1 1 0 0 0-1 1.1 10.4 10.4 0 0 0 20.8 0 1 1 0 0 0-1-1.1H17a1 1 0 0 0 0 2h2.2a8.4 8.4 0 0 1-14.4 0H7a1 1 0 1 0 0-2Z"/></svg>
