<svg xmlns="http://www.w3.org/2000/svg" width="64" height="64" viewBox="0 0 64 64" fill="black">
  <!-- Shield with a checkmark cut out (evenodd) — reads as "verified / compliant" -->
  <path fill-rule="evenodd" clip-rule="evenodd" d="M32 5L55 13V31C55 45 45 55.5 32 59C19 55.5 9 45 9 31V13L32 5ZM43.9 26.1C44.7 25.2 44.6 23.9 43.7 23.1C42.8 22.3 41.5 22.4 40.7 23.3L29.2 36.1L23.1 30.4C22.3 29.6 20.9 29.6 20.1 30.5C19.3 31.3 19.4 32.7 20.3 33.5L27.9 40.6C28.7 41.4 30.1 41.3 30.9 40.4L43.9 26.1Z"/>
</svg>
