<svg viewBox="0 0 64 64" xmlns="http://www.w3.org/2000/svg">
  <!-- Document/SBOM icon with shield overlay representing managed SBOM security -->
  <!-- Document body -->
  <path d="M14 4h26l12 12v40a4 4 0 0 1-4 4H14a4 4 0 0 1-4-4V8a4 4 0 0 1 4-4z" fill="none" stroke="black" stroke-width="2.5"/>
  <!-- Folded corner -->
  <path d="M40 4v12h12" fill="none" stroke="black" stroke-width="2.5"/>
  <!-- Document lines -->
  <line x1="18" y1="28" x2="44" y2="28" stroke="black" stroke-width="2" stroke-linecap="round"/>
  <line x1="18" y1="34" x2="44" y2="34" stroke="black" stroke-width="2" stroke-linecap="round"/>
  <line x1="18" y1="40" x2="36" y2="40" stroke="black" stroke-width="2" stroke-linecap="round"/>
  <!-- Shield badge (bottom-right) -->
  <path d="M44 42v-6c0 0 4-1 8-4 4 3 8 4 8 4v6c0 5-4 9-8 12-4-3-8-7-8-12z" fill="black" stroke="black" stroke-width="1.5"/>
  <!-- Checkmark inside shield (cutout) -->
  <path d="M48 43l3 3 5-5" fill="none" stroke="white" stroke-width="2" stroke-linecap="round" stroke-linejoin="round"/>
</svg>
