<svg viewBox="0 0 64 64" xmlns="http://www.w3.org/2000/svg">
  <!-- Manifest Cyber dotted M mark -->
  <!-- Left pillar -->
  <circle cx="8" cy="8" r="2.5" fill="black"/>
  <circle cx="8" cy="16" r="2.5" fill="black"/>
  <circle cx="8" cy="24" r="2.5" fill="black"/>
  <circle cx="8" cy="32" r="2.5" fill="black"/>
  <circle cx="8" cy="40" r="2.5" fill="black"/>
  <circle cx="8" cy="48" r="2.5" fill="black"/>
  <circle cx="8" cy="56" r="2.5" fill="black"/>
  <!-- Left shoulder -->
  <circle cx="16" cy="8" r="2.5" fill="black"/>
  <circle cx="16" cy="16" r="2.5" fill="black"/>
  <!-- Left diagonal -->
  <circle cx="20" cy="12" r="2.5" fill="black"/>
  <circle cx="24" cy="16" r="2.5" fill="black"/>
  <circle cx="24" cy="24" r="2.5" fill="black"/>
  <circle cx="28" cy="20" r="2.5" fill="black"/>
  <!-- Center V -->
  <circle cx="32" cy="24" r="2.5" fill="black"/>
  <circle cx="32" cy="32" r="2.5" fill="black"/>
  <!-- Right diagonal -->
  <circle cx="36" cy="20" r="2.5" fill="black"/>
  <circle cx="40" cy="16" r="2.5" fill="black"/>
  <circle cx="40" cy="24" r="2.5" fill="black"/>
  <circle cx="44" cy="12" r="2.5" fill="black"/>
  <!-- Right shoulder -->
  <circle cx="48" cy="8" r="2.5" fill="black"/>
  <circle cx="48" cy="16" r="2.5" fill="black"/>
  <!-- Right pillar -->
  <circle cx="56" cy="8" r="2.5" fill="black"/>
  <circle cx="56" cy="16" r="2.5" fill="black"/>
  <circle cx="56" cy="24" r="2.5" fill="black"/>
  <circle cx="56" cy="32" r="2.5" fill="black"/>
  <circle cx="56" cy="40" r="2.5" fill="black"/>
  <circle cx="56" cy="48" r="2.5" fill="black"/>
  <circle cx="56" cy="56" r="2.5" fill="black"/>
</svg>
