<svg xmlns="http://www.w3.org/2000/svg" viewBox="0 0 24 24"><path fill="black" d="M12 21.5c-1.2-1.13-3.2-1.5-5-1.5-1.42 0-2.9.25-4.15.85A.98.98 0 0 1 1.5 20V5.5a1 1 0 0 1 .55-.9C3.44 3.87 5 3.5 7 3.5c1.95 0 3.73.5 5 1.5 1.27-1 3.05-1.5 5-1.5 2 0 3.56.37 4.95 1.1.34.18.55.52.55.9V20a.98.98 0 0 1-1.35.85C19.9 20.25 18.42 20 17 20c-1.8 0-3.8.37-5 1.5M11 7.49C9.94 6.56 8.26 6 7 6c-1.13 0-2.27.2-3 .5v12c.73-.3 1.87-.5 3-.5 1.38 0 2.81.42 4 1.17zM13 19.17c1.19-.75 2.62-1.17 4-1.17 1.13 0 2.27.2 3 .5v-12c-.73-.3-1.87-.5-3-.5-1.26 0-2.94.56-4 1.49zM13 7.49v9.68"/><g stroke="black" stroke-width=".6" stroke-linecap="round" fill="none"><line x1="14.5" y1="8.5" x2="18" y2="8.5"/><line x1="14.5" y1="10.8" x2="18" y2="10.8"/><line x1="14.5" y1="13.1" x2="17" y2="13.1"/></g><text x="6.5" y="13.5" font-family="monospace" font-size="7" fill="white" text-anchor="middle">{ }</text></svg>
