<svg xmlns="http://www.w3.org/2000/svg" width="64" height="64" viewBox="0 0 64 64" fill="none">
  <!-- Left page -->
  <path d="M8 12 C8 10 10 8 14 8 L30 8 L30 54 L14 54 C10 54 8 52 8 50 Z" fill="white" fill-opacity="0.15" stroke="white" stroke-width="2"/>
  <!-- Right page -->
  <path d="M34 8 L50 8 C54 8 56 10 56 12 L56 50 C56 52 54 54 50 54 L34 54 Z" fill="white" fill-opacity="0.15" stroke="white" stroke-width="2"/>
  <!-- Spine -->
  <line x1="32" y1="6" x2="32" y2="56" stroke="white" stroke-width="2"/>
  <!-- Left page lines -->
  <line x1="14" y1="18" x2="26" y2="18" stroke="white" stroke-width="1.2" opacity="0.5"/>
  <line x1="14" y1="24" x2="26" y2="24" stroke="white" stroke-width="1.2" opacity="0.5"/>
  <line x1="14" y1="30" x2="26" y2="30" stroke="white" stroke-width="1.2" opacity="0.5"/>
  <line x1="14" y1="36" x2="22" y2="36" stroke="white" stroke-width="1.2" opacity="0.5"/>
  <!-- Right page lines -->
  <line x1="38" y1="18" x2="50" y2="18" stroke="white" stroke-width="1.2" opacity="0.5"/>
  <line x1="38" y1="24" x2="50" y2="24" stroke="white" stroke-width="1.2" opacity="0.5"/>
  <line x1="38" y1="30" x2="50" y2="30" stroke="white" stroke-width="1.2" opacity="0.5"/>
  <line x1="38" y1="36" x2="46" y2="36" stroke="white" stroke-width="1.2" opacity="0.5"/>
  <!-- Curly braces on right page (API hint) -->
  <text x="40" y="48" font-family="monospace" font-size="10" fill="white" opacity="0.6">{ }</text>
</svg>
