<svg xmlns="http://www.w3.org/2000/svg" viewBox="0 0 24 24" fill="none" stroke="black" stroke-width="1.5" stroke-linecap="round" stroke-linejoin="round"><path d="M12 7v14"/><path d="M3 18a1 1 0 0 1-1-1V4a1 1 0 0 1 1-1h5a4 4 0 0 1 4 4 4 4 0 0 1 4-4h5a1 1 0 0 1 1 1v13a1 1 0 0 1-1 1h-6a3 3 0 0 0-3 3 3 3 0 0 0-3-3z"/><g stroke-width=".9"><line x1="14.5" y1="8" x2="19" y2="8"/><line x1="14.5" y1="10.5" x2="19" y2="10.5"/><line x1="14.5" y1="13" x2="18" y2="13"/></g><g stroke-width=".9"><path d="M6 7.5c-.6 0-.8.3-.8.8v1.4l-.4.3.4.3v1.4c0 .5.2.8.8.8"/><path d="M9 7.5c.6 0 .8.3.8.8v1.4l.4.3-.4.3v1.4c0 .5-.2.8-.8.8"/></g></svg>
