<svg xmlns="http://www.w3.org/2000/svg" viewBox="0 0 24 24" fill="none" stroke="black" stroke-width="1.5" stroke-linecap="round" stroke-linejoin="round"><path d="M2 3h6a4 4 0 0 1 4 4v14a3 3 0 0 0-3-3H2z"/><path d="M22 3h-6a4 4 0 0 0-4 4v14a3 3 0 0 1 3-3h7z"/><g stroke-width=".8"><line x1="15" y1="8" x2="19" y2="8"/><line x1="15" y1="10.5" x2="19" y2="10.5"/><line x1="15" y1="13" x2="18" y2="13"/></g><g stroke-width="1" fill="none"><path d="M6.2 8c-.7 0-.9.4-.9.9v1.2l-.5.4.5.4v1.2c0 .5.2.9.9.9"/><path d="M8.8 8c.7 0 .9.4.9.9v1.2l.5.4-.5.4v1.2c0 .5-.2.9-.9.9"/></g></svg>
